<?xml version="1.0" standalone="no"?>
<!DOCTYPE svg PUBLIC "-//W3C//DTD SVG 20010904//EN"
 "http://www.w3.org/TR/2001/REC-SVG-20010904/DTD/svg10.dtd">
<svg version="1.0" xmlns="http://www.w3.org/2000/svg"
 width="3004.000000pt" height="904.000000pt" viewBox="0 0 3004.000000 904.000000"
 preserveAspectRatio="xMidYMid meet">
<metadata>
Created by potrace 1.16, written by Peter Selinger 2001-2019
</metadata>
<g transform="translate(0.000000,904.000000) scale(0.100000,-0.100000)"
fill="#000000" stroke="none">
<path d="M10 4520 l0 -4510 15010 0 15010 0 0 4510 0 4510 -15010 0 -15010 0
0 -4510z m11730 4114 c211 -24 355 -54 615 -126 138 -38 310 -85 384 -104
l133 -34 162 64 c217 87 342 117 533 131 108 8 98 -2 -42 -45 -139 -43 -191
-64 -338 -137 -76 -38 -127 -69 -124 -76 10 -33 286 -113 357 -103 56 8 150
52 305 145 292 175 474 230 729 218 215 -9 373 -74 507 -206 66 -65 85 -93
139 -201 72 -145 60 -147 148 25 92 180 211 282 412 350 272 93 541 43 915
-170 164 -93 267 -142 330 -156 50 -11 60 -10 191 30 77 24 150 50 164 58 24
16 24 16 -80 65 -174 82 -301 135 -411 170 l-104 33 50 3 c131 9 323 -33 560
-123 213 -81 227 -81 440 -12 464 151 866 221 1270 220 236 0 384 -15 605 -59
119 -23 148 -30 283 -69 88 -25 61 -29 -39 -6 -268 63 -502 86 -793 78 -175
-4 -242 -10 -355 -31 -355 -68 -1016 -259 -1016 -294 0 -24 204 -130 292 -152
66 -17 170 6 393 87 313 113 437 153 539 174 173 35 136 16 -115 -60 -440
-133 -703 -232 -669 -250 26 -14 141 -40 235 -52 56 -7 147 -9 240 -6 356 14
730 115 1225 331 58 25 138 56 178 68 44 14 71 27 68 34 -3 7 8 14 27 16 18 3
93 24 167 47 416 128 949 166 1270 90 87 -20 119 -33 108 -44 -3 -3 -104 3
-224 14 -395 38 -621 22 -974 -64 -190 -47 -361 -106 -732 -251 -491 -191
-698 -255 -937 -288 -264 -37 -437 -31 -714 25 l-157 31 -158 -32 c-268 -56
-501 -50 -684 16 -40 14 -109 39 -153 55 l-80 28 -210 -14 c-269 -19 -395 -19
-575 0 -235 25 -352 48 -495 99 -90 32 -78 32 75 1 311 -64 598 -90 809 -75
127 9 290 35 304 49 9 9 -98 90 -218 166 -127 80 -338 182 -415 201 -97 25
-289 15 -395 -19 -139 -45 -248 -124 -303 -217 -14 -25 -32 -49 -38 -55 -19
-16 -55 -199 -61 -312 -4 -63 -1 -126 7 -165 36 -187 194 -390 373 -478 290
-143 602 -55 697 197 41 108 9 226 -77 286 -173 120 -393 67 -393 -94 0 -26 5
-60 10 -75 16 -42 4 -40 -25 4 -52 79 -46 170 16 237 132 143 373 118 502 -52
34 -46 42 -64 45 -113 8 -113 -36 -234 -120 -325 -62 -69 -129 -111 -226 -143
-67 -22 -93 -25 -207 -25 -156 1 -243 21 -383 88 -124 61 -213 145 -288 271
-30 52 -56 94 -58 94 -2 0 -27 -39 -57 -87 -62 -103 -171 -216 -249 -261 -82
-46 -224 -90 -329 -102 -283 -32 -529 86 -637 305 -34 69 -39 86 -39 154 0 66
4 83 30 129 54 98 145 153 266 160 160 9 280 -75 303 -213 8 -46 -6 -121 -25
-139 -9 -8 -10 -7 -5 9 35 98 5 179 -80 221 -47 23 -63 26 -122 22 -162 -12
-294 -134 -279 -260 32 -269 453 -421 752 -271 123 62 208 154 277 301 59 124
82 227 75 337 -5 95 -49 283 -70 300 -7 6 -21 28 -32 49 -29 58 -106 129 -183
169 -110 57 -192 79 -327 84 -150 6 -232 -10 -358 -70 -88 -42 -463 -282 -461
-296 2 -17 107 -42 217 -52 256 -24 581 0 896 65 68 15 126 25 127 23 6 -6
-190 -66 -264 -82 -229 -48 -531 -63 -860 -45 -258 15 -232 18 -380 -44 -122
-52 -230 -70 -417 -70 -143 1 -191 5 -300 27 -210 42 -201 42 -405 1 -171 -34
-199 -37 -360 -37 -203 0 -345 18 -553 70 -177 44 -299 86 -692 240 -627 245
-904 318 -1255 330 -199 7 -318 -4 -641 -57 -134 -23 -250 -39 -259 -38 -24 5
202 68 351 99 332 67 679 63 999 -12 162 -37 416 -121 561 -185 468 -205 827
-317 1142 -359 213 -27 525 -16 680 26 l40 11 -29 17 c-51 31 -177 78 -380
141 -292 91 -441 152 -316 129 76 -14 173 -46 412 -134 348 -129 405 -133 580
-48 120 59 160 87 145 102 -48 48 -701 233 -1035 293 -111 20 -156 23 -415 22
-274 0 -298 -2 -425 -27 -238 -47 -361 -68 -383 -65 -26 4 413 101 558 124
222 35 524 38 785 8z m-1152 -1550 c-67 -94 -151 -140 -282 -154 -47 -6 -102
-16 -123 -23 l-38 -12 -3 -544 -2 -544 79 110 c140 193 278 325 416 396 52 27
70 32 135 32 97 -1 135 -21 170 -90 l25 -50 3 -551 c3 -528 4 -552 22 -569 18
-16 22 -16 65 -1 26 8 69 29 97 46 28 17 52 29 54 27 3 -2 -15 -31 -40 -63
-44 -59 -112 -117 -172 -147 -46 -23 -136 -35 -195 -26 -75 12 -110 37 -144
104 l-30 59 -5 447 c-6 498 -2 474 -73 486 -52 8 -116 -12 -173 -56 -58 -44
-162 -166 -201 -236 l-28 -50 -5 -250 c-5 -245 -6 -251 -32 -307 -50 -107
-159 -187 -265 -196 l-54 -5 3 894 3 894 22 66 c42 123 142 248 242 302 86 47
139 56 359 56 l203 1 -33 -46z m7161 -6 c492 -13 832 -68 1031 -166 98 -48
195 -142 238 -232 85 -173 78 -421 -17 -585 -85 -147 -258 -272 -466 -338
-110 -34 -172 -46 -319 -60 l-127 -12 89 -140 c160 -253 353 -538 433 -641
185 -236 504 -553 694 -689 269 -193 558 -276 812 -231 167 29 379 121 560
242 36 24 68 43 70 41 8 -9 -164 -172 -231 -219 -214 -151 -408 -202 -761
-202 -179 0 -225 4 -315 23 -337 72 -599 228 -910 540 -191 191 -323 367 -522
696 -104 172 -348 612 -348 627 0 3 71 8 158 11 345 14 572 76 680 184 87 87
122 192 122 369 0 276 -104 473 -300 567 -148 71 -382 112 -675 119 l-140 3
-3 -935 c-2 -1013 -3 -1001 52 -1088 36 -57 100 -108 191 -153 l80 -39 -595 1
-595 1 70 22 c153 49 258 122 310 217 l30 54 5 645 c6 700 6 689 67 885 51
161 108 271 181 347 20 21 33 40 30 43 -9 9 -437 -14 -554 -29 -324 -43 -485
-110 -621 -260 -100 -109 -140 -235 -130 -404 21 -339 209 -591 573 -770 56
-27 116 -54 134 -61 55 -19 29 -22 -86 -11 -156 15 -264 43 -384 101 -91 45
-116 63 -195 143 -77 77 -99 106 -138 186 -66 133 -81 199 -81 350 1 146 18
231 70 335 163 331 574 490 1324 512 207 6 215 7 235 29 l20 23 5 -22 c6 -22
9 -22 249 -29z m8002 35 c-23 -45 -95 -112 -148 -141 -45 -24 -81 -34 -154
-42 -52 -6 -110 -19 -129 -28 l-35 -17 -3 -864 c-1 -630 1 -867 9 -877 30 -36
121 -5 237 81 35 25 66 45 68 43 2 -2 -25 -41 -61 -86 -124 -157 -287 -264
-403 -264 -103 0 -159 41 -188 139 -22 72 -20 1584 1 1668 25 96 72 181 141
254 120 128 188 149 472 150 190 1 202 0 193 -16z m-20651 -73 c-241 -61 -318
-100 -363 -184 l-22 -41 0 -881 0 -881 43 -84 c187 -366 620 -736 1017 -867
316 -105 683 -101 835 9 77 56 102 162 58 249 -18 35 -44 60 -115 110 -51 36
-95 68 -98 71 -12 13 86 108 130 125 61 23 170 24 212 1 90 -48 130 -297 72
-452 -26 -69 -105 -158 -171 -191 -200 -101 -757 -105 -1098 -7 -199 57 -433
206 -822 525 -120 99 -252 181 -336 210 -66 23 -75 23 -462 23 -348 0 -404 -2
-473 -18 -119 -28 -236 -92 -349 -192 -54 -48 -98 -82 -98 -77 0 5 22 40 49
79 86 122 209 216 347 263 41 15 136 28 319 46 144 13 282 32 309 41 31 10 65
32 92 58 77 77 74 42 74 959 0 552 -4 823 -11 850 -15 55 -96 138 -167 169
-102 46 -245 58 -440 36 -308 -33 -482 -130 -576 -321 -51 -103 -66 -165 -73
-303 -6 -139 9 -220 58 -321 55 -112 174 -231 284 -284 92 -45 186 -58 279
-38 178 39 283 126 358 297 l29 66 -6 -64 c-17 -173 -105 -283 -275 -343 -58
-20 -83 -23 -230 -22 -186 1 -266 17 -381 75 -90 45 -186 144 -233 239 -110
225 -73 578 81 768 55 68 92 100 183 160 133 88 322 160 460 175 19 2 402 4
850 5 l815 1 -155 -39z m2470 -690 l151 0 -16 -29 c-31 -62 -113 -98 -250
-113 l-30 -3 -3 -509 c-3 -591 -7 -561 83 -554 56 5 136 47 240 125 27 21 45
31 41 23 -70 -120 -229 -281 -327 -329 -139 -68 -280 -57 -323 27 -38 74 -40
96 -45 662 l-6 555 -102 3 c-69 2 -103 7 -103 14 0 22 87 94 170 142 132 77
217 178 316 379 l49 98 3 -245 2 -246 150 0z m14965 60 c37 -14 148 -123 189
-185 45 -67 76 -161 76 -229 0 -47 -8 -71 -63 -178 -35 -67 -139 -247 -232
-398 -428 -699 -492 -839 -483 -1065 3 -94 6 -108 41 -178 46 -93 109 -160
185 -195 49 -23 70 -26 152 -26 158 0 234 49 325 209 l45 80 0 -42 c0 -86 -50
-198 -115 -256 -32 -29 -153 -83 -230 -103 -52 -13 -106 -18 -215 -17 -234 0
-371 40 -450 130 -96 109 -103 316 -17 498 30 63 193 289 326 450 l49 60 -102
210 c-176 360 -372 703 -456 797 -36 40 -54 52 -90 58 -79 15 -216 -17 -338
-79 -23 -12 -42 -18 -42 -15 0 14 118 153 200 234 96 97 161 145 232 172 97
37 159 19 249 -73 79 -79 150 -190 284 -444 101 -189 208 -378 272 -477 10
-16 21 -28 25 -28 18 0 139 268 154 340 42 199 -35 364 -213 458 -35 18 -63
36 -63 38 0 12 121 181 148 207 27 26 89 55 119 57 6 0 24 -5 38 -10z m-13340
-104 c74 -37 246 -170 244 -190 0 -6 -196 -189 -435 -406 -239 -217 -434 -397
-434 -401 0 -15 95 -99 132 -117 98 -45 281 -63 398 -38 75 16 202 71 293 127
64 39 52 17 -50 -91 -198 -211 -422 -297 -698 -269 -209 21 -330 99 -418 267
-70 135 -92 255 -77 417 27 281 148 486 371 628 146 93 328 133 524 115 61 -6
96 -16 150 -42z m4530 40 c71 -30 85 -79 93 -334 l7 -194 140 178 c159 201
230 270 327 319 153 76 291 48 347 -69 30 -64 28 -145 -4 -214 -25 -54 -171
-213 -306 -333 l-67 -59 20 62 c25 79 35 212 19 260 -28 85 -101 105 -187 52
-30 -18 -97 -85 -171 -169 l-123 -140 0 -311 0 -311 -78 -56 c-89 -64 -148
-93 -210 -103 l-42 -7 0 554 c0 641 5 604 -87 597 -40 -4 -66 -13 -99 -36 -24
-18 -47 -32 -50 -32 -27 0 195 234 282 296 93 67 127 76 189 50z m6630 -1
c124 -22 227 -78 313 -169 117 -126 170 -258 179 -451 8 -177 -30 -307 -131
-449 -49 -69 -159 -177 -231 -226 -67 -46 -183 -97 -262 -116 -88 -20 -258
-20 -338 1 -288 75 -468 351 -453 695 8 184 81 342 225 486 195 195 439 275
698 229z m6508 0 c78 -9 172 -58 277 -146 47 -39 86 -74 88 -78 1 -5 -193
-187 -433 -406 -239 -219 -435 -402 -435 -407 0 -14 85 -95 117 -111 99 -52
340 -69 457 -33 61 18 175 73 255 122 l45 27 -24 -33 c-120 -168 -316 -303
-500 -345 -89 -20 -270 -22 -356 -5 -154 31 -275 126 -347 271 -56 115 -71
185 -71 329 2 344 170 620 458 750 109 49 281 83 381 73 17 -1 56 -5 88 -8z
m-20423 -623 c0 -467 3 -621 12 -630 23 -23 77 -12 163 33 47 24 85 41 85 37
0 -4 -17 -28 -38 -55 -85 -107 -218 -188 -311 -189 -84 0 -187 71 -227 157
-21 43 -24 66 -24 163 0 66 -4 112 -9 110 -5 -1 -58 -46 -117 -98 -302 -267
-402 -332 -511 -332 -124 0 -230 94 -284 254 -58 171 -34 476 51 664 113 250
368 436 660 484 41 6 82 13 90 15 8 1 115 3 238 4 l222 1 0 -618z m6390 0 c0
-467 3 -621 12 -630 22 -22 76 -12 162 31 47 24 86 40 86 36 0 -20 -86 -112
-147 -157 -100 -76 -211 -105 -275 -71 -58 30 -121 85 -146 127 -25 43 -27 57
-31 175 l-3 127 -87 -78 c-312 -284 -434 -364 -550 -364 -73 0 -121 24 -184
91 -100 107 -133 228 -124 456 6 150 24 241 72 356 112 267 382 460 711 508
32 5 159 9 282 10 l222 1 0 -618z m11560 7 c0 -401 4 -617 10 -630 17 -31 67
-23 168 26 82 39 91 42 81 22 -7 -12 -45 -54 -85 -94 -165 -160 -303 -176
-435 -50 -60 57 -72 93 -77 230 -2 64 -7 117 -9 117 -3 0 -44 -35 -91 -78
-306 -277 -422 -353 -538 -353 -64 0 -110 18 -162 66 -93 83 -141 201 -149
366 -14 254 53 491 185 655 106 131 273 239 448 289 129 37 184 42 432 44
l222 1 0 -611z m-5650 -2218 c0 -5 -74 -294 -165 -642 -91 -348 -165 -646
-165 -661 0 -65 61 -45 124 41 37 51 46 58 56 46 10 -12 7 -23 -16 -57 -107
-154 -216 -213 -289 -156 -26 20 -27 25 -22 77 3 31 71 308 151 616 80 308
148 574 152 590 9 50 -14 70 -80 69 -46 0 -56 3 -56 17 0 14 24 22 128 42 140
27 182 32 182 18z m1490 -55 c72 -47 101 -140 75 -238 -31 -118 -104 -196
-252 -269 l-101 -50 34 -129 c31 -117 98 -314 122 -357 8 -14 19 -4 60 61 88
134 115 239 70 270 -12 9 -30 16 -40 16 -11 0 -18 8 -18 20 0 19 7 20 185 20
178 0 185 -1 185 -20 0 -12 -7 -20 -17 -20 -32 0 -117 -47 -150 -81 -17 -19
-77 -103 -133 -188 l-102 -155 18 -35 c28 -52 114 -142 151 -158 63 -26 146
-10 187 36 19 21 56 29 56 12 0 -4 -22 -31 -49 -58 -62 -63 -132 -88 -230 -81
-87 7 -150 36 -210 97 l-48 51 -77 -51 c-95 -63 -174 -90 -292 -96 -117 -7
-208 18 -273 74 -83 71 -125 210 -102 337 34 184 166 310 429 411 l72 28 0
121 c0 192 36 294 138 387 65 60 123 80 210 75 46 -3 73 -10 102 -30z m-4940
0 c0 -21 -17 -36 -39 -36 -14 0 -45 -9 -69 -20 -35 -16 -47 -29 -67 -72 -22
-48 -135 -446 -135 -475 0 -10 64 -13 284 -13 157 0 287 4 290 8 3 5 30 103
61 218 79 299 75 341 -35 352 -27 2 -50 6 -50 7 0 2 3 10 6 19 5 14 37 16 256
16 232 0 249 -1 246 -17 -2 -13 -17 -20 -50 -25 -64 -9 -102 -38 -131 -101
-23 -47 -258 -909 -287 -1050 -16 -79 -7 -115 36 -133 18 -8 47 -14 64 -14 25
0 31 -4 28 -17 -3 -17 -24 -18 -246 -21 -228 -2 -243 -1 -240 15 2 14 16 19
55 23 64 7 95 34 122 104 18 48 142 507 145 534 1 10 -60 12 -283 12 -156 1
-288 -3 -292 -7 -14 -15 -130 -469 -136 -533 -5 -57 -3 -67 15 -83 11 -10 37
-20 58 -23 57 -8 64 -12 58 -29 -5 -13 -40 -15 -249 -15 -238 0 -243 0 -238
20 4 16 14 20 45 20 63 0 103 31 128 98 36 94 280 1022 286 1087 8 80 -10 105
-84 113 -48 4 -64 17 -45 35 7 7 493 10 493 3z m6747 -25 c125 -45 203 -148
203 -268 0 -165 -103 -283 -305 -348 -16 -5 -12 -10 25 -31 141 -79 198 -221
155 -380 -34 -128 -124 -232 -241 -278 -96 -39 -170 -46 -492 -46 -274 0 -293
1 -290 18 2 12 16 19 48 22 62 8 86 24 111 71 18 36 286 1015 304 1112 14 74
-27 117 -111 117 -33 0 -45 16 -27 34 5 4 132 6 283 4 254 -4 280 -6 337 -27z
m-4727 -193 c0 -7 -14 -62 -30 -123 -16 -60 -30 -116 -30 -122 0 -9 20 -13 66
-13 l65 0 -3 -32 -3 -33 -74 -5 -74 -5 -39 -145 c-106 -399 -148 -574 -143
-591 14 -44 69 -9 151 95 22 28 36 37 48 33 16 -6 16 -9 -1 -38 -40 -68 -122
-157 -165 -178 -50 -24 -114 -27 -140 -7 -27 20 -40 67 -33 116 3 25 44 192
91 372 46 180 84 331 84 337 0 7 -25 11 -65 11 -56 0 -65 3 -65 18 0 12 20 26
68 47 81 35 150 100 212 202 28 46 52 73 63 73 9 0 17 -6 17 -12z m10054 -115
c-19 -71 -34 -131 -34 -135 0 -5 32 -8 70 -8 l70 0 -6 -27 c-10 -43 -11 -43
-84 -43 -57 0 -70 -3 -74 -17 -3 -10 -44 -164 -91 -343 -87 -330 -97 -392 -62
-398 19 -4 76 49 133 122 25 32 32 36 42 24 14 -17 -18 -72 -89 -152 -75 -85
-169 -111 -226 -62 -25 21 -27 29 -25 82 1 36 36 190 90 399 l88 340 -68 3
c-92 4 -88 22 12 73 86 43 155 111 210 208 26 45 41 61 57 61 21 0 21 -1 -13
-127z m-10761 -160 c51 -28 95 -79 125 -143 23 -51 22 -236 -2 -315 -55 -181
-172 -328 -317 -399 -63 -31 -91 -39 -157 -43 -52 -4 -98 -1 -127 7 -61 17
-128 78 -162 148 -25 51 -28 67 -27 157 1 176 65 327 193 455 157 156 337 207
474 133z m1481 9 c107 -63 99 -199 -19 -317 -88 -87 -262 -163 -415 -181 -82
-9 -84 -12 -84 -91 1 -144 95 -234 230 -220 67 7 121 34 210 103 70 53 102 59
71 11 -27 -41 -169 -149 -237 -180 -49 -22 -85 -31 -146 -35 -72 -4 -88 -2
-136 21 -95 43 -148 142 -148 276 0 282 225 579 477 630 65 13 159 5 197 -17z
m4835 1 c14 -11 36 -38 48 -61 24 -47 25 -47 42 19 13 46 13 47 64 53 29 4 62
10 74 12 21 6 20 -2 -33 -203 -116 -443 -154 -602 -148 -617 13 -33 52 -18 94
35 22 28 44 57 48 65 8 14 42 10 42 -5 0 -17 -110 -149 -146 -174 -52 -37
-123 -47 -159 -23 -22 14 -25 24 -25 74 0 32 7 84 15 116 9 33 14 60 13 62 -2
1 -31 -32 -65 -75 -128 -161 -257 -223 -360 -174 -183 86 -92 538 158 785 124
122 261 167 338 111z m721 21 c0 -4 -25 -101 -56 -216 -30 -115 -54 -211 -52
-213 2 -2 44 57 93 131 133 202 217 280 317 299 46 9 92 -14 114 -57 22 -42
14 -116 -26 -268 -127 -482 -126 -478 -107 -497 17 -17 20 -16 60 27 23 25 52
59 64 75 17 24 24 27 34 18 15 -15 -13 -60 -86 -141 -96 -107 -198 -124 -229
-38 -10 28 8 113 85 406 38 146 69 282 69 302 0 119 -138 41 -264 -151 -122
-185 -169 -287 -236 -518 l-21 -73 -64 0 c-46 0 -65 4 -65 13 0 7 40 167 90
355 108 412 109 416 84 443 -16 18 -26 20 -66 15 -43 -6 -48 -5 -48 12 0 17
20 23 148 50 174 36 162 34 162 26z m1141 -4 c41 -12 71 -41 98 -95 l19 -40
12 45 c6 25 12 49 14 55 2 8 137 48 143 41 1 -1 -70 -274 -157 -605 -88 -332
-160 -617 -160 -633 0 -46 17 -67 65 -79 44 -11 57 -25 32 -35 -7 -2 -109 -3
-227 -2 -203 3 -213 4 -196 21 10 10 33 17 54 17 49 0 97 31 121 77 19 38 165
592 158 599 -2 2 -21 -22 -43 -53 -57 -86 -162 -192 -216 -219 -32 -16 -64
-24 -100 -24 -75 0 -116 30 -153 112 -25 54 -29 75 -28 148 1 265 213 584 441
666 45 16 76 17 123 4z m683 -1 c15 -7 30 -26 37 -46 14 -43 -1 -118 -83 -423
-33 -124 -62 -248 -65 -276 -5 -45 -3 -53 15 -63 33 -17 94 13 150 74 61 67
159 210 211 308 35 67 99 250 131 375 l11 42 64 0 c35 0 66 -3 68 -7 2 -5 -37
-163 -88 -353 -51 -190 -95 -365 -98 -390 -14 -93 29 -91 101 5 34 45 52 61
62 55 29 -18 -91 -175 -161 -210 -81 -42 -149 -14 -149 59 0 38 35 197 69 316
11 38 18 71 17 73 -2 1 -23 -30 -46 -70 -185 -312 -335 -441 -453 -387 -71 32
-67 107 23 467 38 155 70 296 70 313 0 62 -45 46 -108 -38 -34 -46 -62 -59
-62 -29 0 23 89 132 135 165 67 48 107 59 149 40z m1340 -17 c147 -86 69 -295
-153 -411 -79 -41 -188 -75 -276 -86 -81 -11 -83 -12 -91 -60 -9 -60 11 -134
48 -179 92 -111 227 -100 398 32 64 50 98 56 67 12 -31 -44 -155 -141 -225
-176 -61 -30 -87 -37 -156 -41 -74 -5 -89 -3 -138 19 -202 93 -199 422 6 695
78 103 208 189 323 212 65 13 159 5 197 -17z m-15825 -1817 c63 -10 146 -52
183 -94 58 -66 73 -114 73 -236 0 -128 -17 -174 -88 -244 -74 -73 -121 -85
-359 -89 -144 -2 -208 0 -208 7 0 6 12 11 26 11 14 0 34 5 45 10 18 10 19 24
19 304 0 320 2 310 -58 322 -18 4 -30 9 -28 13 5 8 335 5 395 -4z m488 6 l32
-1 3 -131 3 -131 39 31 c51 41 95 48 143 25 63 -31 73 -64 73 -247 0 -158 7
-197 35 -197 8 0 15 -4 15 -10 0 -6 -45 -10 -115 -10 -106 0 -144 10 -96 25
15 4 21 19 27 62 10 82 -1 289 -16 308 -19 23 -49 18 -81 -14 l-29 -29 0 -141
c0 -144 8 -191 35 -191 8 0 15 -4 15 -10 0 -6 -45 -10 -115 -10 -70 0 -115 4
-115 10 0 6 7 10 15 10 31 0 35 39 35 320 l0 281 -25 24 c-30 27 -23 31 42 28
27 -1 62 -2 80 -2z m4853 3 c89 -6 100 -8 70 -16 -70 -18 -70 -20 -70 -308 0
-144 4 -270 10 -284 9 -25 12 -26 102 -26 75 0 99 4 125 20 37 22 75 77 93
132 20 64 34 58 26 -11 -3 -33 -9 -88 -12 -121 l-7 -60 -293 0 c-189 0 -294 4
-294 10 0 6 12 10 26 10 14 0 34 5 45 10 18 10 19 24 19 304 0 320 2 310 -59
322 -85 17 51 28 219 18z m1880 -132 l5 -134 39 31 c48 38 92 47 139 28 65
-27 71 -49 77 -247 3 -96 9 -181 13 -187 5 -7 15 -13 23 -13 8 0 14 -4 14 -10
0 -6 -45 -10 -115 -10 -63 0 -115 3 -115 8 0 4 9 13 20 20 19 11 20 23 20 185
0 121 -4 177 -12 185 -20 20 -48 14 -79 -17 l-29 -29 0 -141 c0 -144 8 -191
35 -191 8 0 15 -4 15 -10 0 -6 -45 -10 -115 -10 -70 0 -115 4 -115 10 0 6 7
10 15 10 31 0 35 39 35 320 l0 281 -26 24 -25 23 23 4 c13 2 52 4 88 3 l65 0
5 -133z m-770 5 l0 -83 48 0 c41 1 47 -2 50 -21 3 -21 0 -23 -47 -23 l-51 0 0
-169 c0 -93 3 -176 6 -185 9 -23 40 -20 64 6 26 28 38 16 16 -17 -36 -54 -114
-76 -169 -46 -48 26 -57 63 -57 245 l0 166 -30 0 c-40 0 -38 9 12 44 22 16 63
60 91 98 27 37 53 68 58 68 5 0 9 -37 9 -83z m-5253 -86 c71 -33 78 -52 81
-239 l4 -164 24 5 c19 3 24 0 22 -11 -6 -28 -54 -55 -99 -55 -36 0 -47 5 -69
31 l-26 31 -36 -25 c-74 -53 -155 -49 -184 8 -37 71 10 136 144 207 l82 42 0
58 c0 69 -20 94 -71 89 -45 -4 -58 -29 -36 -67 22 -37 21 -47 -3 -71 -26 -26
-68 -25 -97 2 -27 25 -28 39 -7 84 37 78 178 117 271 75z m561 3 c29 -20 30
-76 2 -104 -25 -25 -41 -25 -74 1 -32 26 -53 22 -80 -14 -19 -26 -21 -42 -21
-170 0 -137 1 -142 23 -153 43 -22 34 -24 -91 -24 -125 0 -149 6 -104 25 21
10 22 14 25 190 1 99 0 190 -3 201 -2 12 -15 24 -27 28 -42 11 0 23 70 20 37
-2 75 -4 84 -4 13 0 18 -11 20 -47 l3 -47 28 41 c27 40 76 72 107 73 9 0 26
-7 38 -16z m390 -8 c53 -27 63 -54 63 -179 0 -61 3 -136 6 -165 5 -50 7 -53
29 -48 14 4 24 2 24 -4 0 -18 -49 -57 -76 -63 -39 -7 -92 11 -105 36 -7 12
-13 24 -15 26 -1 1 -18 -8 -36 -22 -66 -50 -143 -54 -178 -9 -58 73 4 161 174
244 46 22 46 22 46 73 0 66 -20 95 -65 95 -18 0 -41 -7 -50 -16 -14 -15 -14
-18 0 -40 19 -30 19 -68 -1 -88 -36 -37 -114 -5 -114 47 0 33 35 84 69 102 71
36 170 41 229 11z m557 10 c18 -8 41 -26 50 -40 l17 -25 45 34 c55 42 101 52
151 33 66 -25 77 -58 80 -253 l3 -170 27 -22 27 -23 -122 0 c-121 0 -145 6
-100 25 21 10 22 14 25 184 2 119 -1 178 -9 187 -18 22 -54 17 -88 -12 l-31
-26 0 -150 c0 -149 7 -188 35 -188 8 0 15 -4 15 -10 0 -6 -45 -10 -115 -10
-107 0 -143 10 -95 25 19 6 20 15 20 184 0 124 -4 181 -12 189 -21 21 -59 13
-89 -19 -29 -31 -29 -32 -29 -153 0 -152 7 -194 31 -201 48 -15 10 -25 -96
-25 -70 0 -115 4 -115 10 0 6 7 10 15 10 29 0 35 39 35 215 0 175 0 176 -25
199 l-25 24 22 6 c29 7 106 7 136 0 15 -4 22 -14 22 -30 0 -31 11 -30 40 1 39
42 100 54 155 31z m841 -21 c18 -14 43 -46 55 -72 20 -40 24 -63 24 -143 0
-79 -4 -103 -23 -142 -32 -64 -72 -91 -141 -96 -47 -3 -62 0 -93 22 l-38 25 0
-104 c0 -110 9 -135 51 -135 10 0 19 -4 19 -10 0 -6 -50 -10 -130 -10 -71 0
-130 4 -130 8 0 5 11 14 25 20 l25 12 0 305 0 305 -26 11 c-42 15 -21 22 73
22 l88 0 5 -28 5 -27 20 22 c48 55 131 61 191 15z m1082 19 c19 -13 22 -24 20
-57 -2 -33 -9 -44 -30 -56 -25 -14 -29 -14 -58 7 -38 28 -56 26 -84 -11 -19
-26 -21 -42 -21 -170 0 -137 1 -142 23 -153 44 -22 34 -24 -94 -24 l-129 1 28
20 27 21 0 194 0 194 -27 12 -28 11 37 7 c20 4 47 6 60 4 13 -1 40 -3 61 -3
l37 -1 0 -47 0 -48 32 39 c34 41 83 76 108 76 9 0 26 -7 38 -16z m1461 -9 c57
-29 63 -50 69 -231 l5 -165 23 5 c14 4 24 2 24 -4 0 -18 -49 -57 -76 -63 -29
-5 -94 10 -94 22 0 4 -6 16 -14 26 -13 18 -14 17 -47 -7 -67 -51 -144 -56
-179 -10 -58 73 4 161 174 244 l46 22 0 55 c0 37 -5 60 -17 73 -21 23 -75 23
-96 0 -15 -16 -15 -21 -2 -38 19 -25 19 -69 -1 -88 -36 -37 -114 -5 -114 47 0
33 35 84 69 102 72 37 170 41 230 10z m768 14 c65 -24 123 -116 123 -196 0
-23 -1 -23 -126 -23 l-126 0 7 -37 c10 -55 33 -100 67 -128 47 -39 100 -31
145 24 34 41 40 15 7 -31 -40 -57 -74 -79 -127 -85 -142 -16 -222 69 -222 237
1 117 53 204 141 235 48 17 74 18 111 4z m1040 -8 c71 -33 77 -52 82 -239 l3
-164 24 5 c29 5 32 -13 5 -37 -47 -43 -138 -38 -159 10 -12 26 -15 26 -62 -7
-98 -67 -204 -22 -185 79 8 46 63 96 155 142 l80 40 0 57 c0 38 -5 62 -17 75
-20 22 -70 23 -95 2 -17 -16 -17 -18 2 -49 32 -52 8 -95 -53 -95 -26 0 -67 38
-67 62 0 98 174 170 287 119z m563 -1 c11 -11 20 -33 20 -50 0 -31 -30 -70
-54 -70 -7 0 -25 9 -40 21 -32 26 -53 22 -80 -14 -19 -26 -21 -42 -21 -170 0
-137 1 -142 23 -153 43 -22 34 -24 -91 -24 -125 0 -149 6 -104 25 21 10 22 14
25 190 1 99 0 190 -3 201 -2 12 -15 24 -27 27 -38 10 -12 19 64 22 104 3 108
1 108 -53 l0 -45 31 39 c32 41 82 74 111 74 10 0 27 -9 38 -20z m-4582 2 c9
-2 12 -48 12 -191 0 -159 3 -192 16 -205 23 -23 42 -20 75 13 l29 29 0 156 c0
155 0 156 -25 172 -14 9 -23 19 -21 22 7 7 148 12 169 6 15 -5 17 -24 17 -215
0 -198 1 -209 20 -221 36 -23 22 -28 -70 -28 l-90 0 0 31 0 32 -27 -28 c-55
-55 -134 -62 -184 -17 -40 36 -48 79 -48 270 l-1 142 -27 12 -28 11 23 6 c22
5 129 7 160 3z m855 -323 c54 -24 75 -124 41 -192 -21 -41 -62 -85 -96 -103
-52 -27 -68 -11 -18 18 36 21 70 74 70 110 0 25 -3 27 -41 25 -32 -1 -45 4
-60 22 -56 69 20 158 104 120z"/>
<path d="M12800 8181 c-36 -15 -108 -48 -160 -73 l-95 -45 40 -12 c135 -39
476 -11 614 50 35 15 42 22 31 29 -19 10 -320 80 -346 80 -10 0 -48 -13 -84
-29z"/>
<path d="M17400 8203 c-31 -6 -222 -50 -272 -64 -21 -5 -38 -13 -38 -18 0 -11
62 -38 130 -57 65 -19 423 -30 510 -17 l55 8 -65 37 c-101 56 -245 118 -271
117 -13 -1 -35 -4 -49 -6z"/>
<path d="M8675 6126 c-70 -31 -129 -118 -165 -248 -36 -126 -25 -394 20 -476
5 -10 48 23 146 110 240 214 304 299 304 403 0 36 -8 76 -19 100 -19 43 -78
100 -118 116 -35 13 -133 10 -168 -5z"/>
<path d="M20029 6200 c-123 -21 -217 -112 -260 -251 -46 -148 -6 -518 74 -692
32 -69 98 -132 167 -159 68 -27 224 -32 280 -9 174 71 255 251 231 514 -19
199 -78 385 -153 479 -74 93 -210 141 -339 118z"/>
<path d="M26439 6112 c-83 -53 -142 -177 -161 -342 -13 -110 -1 -247 28 -333
16 -48 16 -48 38 -29 11 10 77 68 145 128 192 169 281 286 281 369 0 141 -89
234 -226 235 -49 0 -68 -5 -105 -28z"/>
<path d="M5936 6234 c-183 -44 -344 -197 -412 -392 -48 -140 -39 -336 22 -423
41 -60 99 -83 192 -77 91 6 172 39 287 119 l75 51 0 369 0 369 -52 -1 c-29 0
-79 -7 -112 -15z"/>
<path d="M12335 6236 c-181 -44 -347 -195 -412 -375 -49 -133 -50 -318 -4
-409 63 -124 205 -148 375 -64 44 22 107 59 139 82 l57 41 0 370 0 369 -52 -1
c-29 0 -76 -6 -103 -13z"/>
<path d="M23930 6243 c-213 -35 -406 -219 -465 -443 -17 -65 -20 -218 -4 -290
13 -61 61 -128 109 -153 28 -14 52 -17 116 -14 68 3 93 9 159 40 43 21 107 58
142 83 l63 45 0 370 0 369 -47 -1 c-27 -1 -59 -4 -73 -6z"/>
<path d="M20012 3400 c-66 -40 -101 -172 -87 -323 10 -102 14 -107 67 -80 111
55 177 130 199 228 16 71 5 121 -36 162 -40 40 -91 44 -143 13z"/>
<path d="M19723 2811 c-178 -98 -263 -218 -263 -369 0 -90 22 -151 76 -211 55
-61 108 -83 196 -84 56 0 78 5 130 32 35 17 76 42 92 55 l29 25 -35 78 c-48
105 -103 273 -130 399 -13 57 -27 104 -33 104 -5 0 -34 -13 -62 -29z"/>
<path d="M21754 3384 c-18 -4 -29 -37 -88 -258 -36 -139 -66 -259 -66 -266 0
-9 27 -11 113 -8 130 4 197 28 260 93 63 65 82 116 82 222 0 85 -2 94 -30 134
-41 58 -91 82 -179 85 -39 1 -80 0 -92 -2z"/>
<path d="M21570 2768 c0 -2 -36 -136 -79 -298 -44 -163 -76 -299 -71 -304 4
-4 57 -9 117 -10 85 -1 119 3 160 18 105 39 198 134 224 229 17 60 13 177 -6
223 -24 59 -82 112 -139 129 -40 12 -206 22 -206 13z"/>
<path d="M16404 2940 c-76 -18 -157 -106 -225 -245 -66 -136 -91 -234 -93
-365 -1 -117 9 -147 64 -193 104 -88 244 -2 350 216 65 135 93 244 94 372 1
124 -17 168 -84 203 -47 23 -56 24 -106 12z"/>
<path d="M17852 2926 c-77 -37 -162 -126 -205 -216 -34 -73 -73 -188 -65 -195
10 -11 162 30 224 60 128 62 208 157 221 263 4 41 2 52 -18 76 -35 40 -89 44
-157 12z"/>
<path d="M22800 2939 c-84 -33 -167 -129 -236 -274 -73 -154 -108 -318 -85
-402 13 -48 60 -93 97 -93 67 0 153 67 227 178 102 153 147 282 147 420 0 102
-18 148 -66 168 -38 16 -50 16 -84 3z"/>
<path d="M24675 2931 c-125 -56 -284 -351 -302 -555 -14 -171 71 -244 191
-165 131 87 275 357 292 549 6 58 3 75 -16 115 -16 33 -33 51 -56 61 -43 18
-61 17 -109 -5z"/>
<path d="M26575 2927 c-109 -53 -193 -157 -247 -309 -38 -108 -38 -107 23 -97
167 27 303 109 364 220 37 69 41 147 9 179 -32 33 -90 35 -149 7z"/>
<path d="M10836 1123 c-8 -8 -8 -556 0 -577 9 -24 98 -21 140 4 64 40 100 164
91 310 -8 127 -46 214 -105 244 -31 15 -116 28 -126 19z"/>
<path d="M14339 879 c-29 -31 -29 -31 -29 -162 0 -128 1 -131 27 -159 39 -41
87 -39 110 5 23 41 26 244 4 295 -25 60 -68 68 -112 21z"/>
<path d="M17757 928 c-23 -18 -47 -80 -47 -123 l0 -35 66 0 66 0 -4 66 c-3 55
-8 70 -27 85 -27 22 -32 23 -54 7z"/>
</g>
</svg>
